<?xml version="1.0" standalone="no"?><!DOCTYPE svg PUBLIC "-//W3C//DTD SVG 1.1//EN" "http://www.w3.org/Graphics/SVG/1.1/DTD/svg11.dtd"><svg class="icon" width="200px" height="200.00px" viewBox="0 0 1024 1024" version="1.1" xmlns="http://www.w3.org/2000/svg"><path d="M451.67 356.28H294.29c-17.98 0-32.56 14.58-32.56 32.56v1.68c0 17.98 14.58 32.56 32.56 32.56h157.38c17.98 0 32.56-14.58 32.56-32.56v-1.68c0-17.98-14.58-32.56-32.56-32.56zM451.67 523.04H294.29c-17.98 0-32.56 14.58-32.56 32.56v1.68c0 17.98 14.58 32.56 32.56 32.56h157.38c17.98 0 32.56-14.58 32.56-32.56v-1.68c0-17.99-14.58-32.56-32.56-32.56zM451.67 689.79H294.29c-17.98 0-32.56 14.58-32.56 32.56v1.68c0 17.98 14.58 32.56 32.56 32.56h157.38c17.98 0 32.56-14.58 32.56-32.56v-1.68c0-17.98-14.58-32.56-32.56-32.56zM711.66 623.24h46.13c17.98 0 32.56-14.58 32.56-32.56V589c0-17.98-14.58-32.56-32.56-32.56h-46.13c-17.98 0-32.56 14.58-32.56 32.56v1.68c0 17.99 14.58 32.56 32.56 32.56zM711.66 756.59h46.13c17.98 0 32.56-14.58 32.56-32.56v-1.68c0-17.98-14.58-32.56-32.56-32.56h-46.13c-17.98 0-32.56 14.58-32.56 32.56v1.68c0 17.99 14.58 32.56 32.56 32.56zM924.54 870.91h-20.85V547.68c0-20.54-9.78-38.85-25.17-47.6L622.06 330.25l-2.41-1.36v-189.3c0-16.73-8.02-32.66-21.46-42.63-13.42-9.96-31.02-13.01-47.01-8.16L149.87 210.48c-22.54 6.83-37.69 27.23-37.69 50.79v609.65H99.66c-17.98 0-32.56 14.58-32.56 32.56v1.68c0 17.98 14.58 32.56 32.56 32.56h824.88c17.98 0 32.56-14.58 32.56-32.56v-1.68c0-17.99-14.58-32.57-32.56-32.57z m-85.97-319.18v319.18H619.65V406.75l218.92 144.98zM177.3 270.2l377.23-114.38V870.91H177.3V270.2z" /></svg>