<?xml version="1.0" standalone="no"?><!DOCTYPE svg PUBLIC "-//W3C//DTD SVG 1.1//EN" "http://www.w3.org/Graphics/SVG/1.1/DTD/svg11.dtd"><svg class="icon" width="200px" height="200.00px" viewBox="0 0 1024 1024" version="1.1" xmlns="http://www.w3.org/2000/svg"><path d="M401.297297 747.243243c-25.433946 0-50.286703-2.352432-74.336865-6.863567-38.413838-7.195676-132.843243 110.868757-166.33081 93.599135-33.681297-17.408-6.365405-170.205405-33.15546-196.026811C57.260973 570.340324 13.837838 476.879568 13.837838 373.621622 13.837838 167.271784 187.308973 0 401.297297 0s387.459459 167.271784 387.45946 373.621622S615.285622 747.243243 401.297297 747.243243z m-204.523243-13.201297c0.110703 8.413405 0.276757 15.609081 0.442811 21.863784l13.616432-10.987244 0.359784-0.276756c67.39027-54.797838 85.241081-66.310919 125.979676-58.672433 20.950486 3.929946 42.371459 5.922595 64.12454 5.922595 183.849514 0 332.108108-142.944865 332.108108-318.27027S585.146811 55.351351 401.297297 55.351351 69.189189 198.296216 69.189189 373.621622c0 85.241081 35.065081 165.113081 96.671135 224.449729 27.45427 26.457946 29.474595 45.194378 30.830703 132.372757l0.055351 3.597838z m244.376216 75.001081a450.975135 450.975135 0 0 0 62.131892-9.824865c44.917622 51.476757 118.285838 85.656216 202.447568 85.656216 16.743784 0 33.210811-1.356108 49.345729-4.012973 22.970811-3.819243 42.094703 2.629189 64.539676 15.443027 10.43373 5.977946 18.902486 11.679135 35.175784 23.302919 0.387459-17.463351 0.83027-26.457946 2.158703-37.196108 3.155027-25.655351 9.603459-44.613189 28.007783-60.305297C929.819676 783.858162 954.810811 733.488432 954.810811 680.406486c0-75.997405-51.615135-143.913514-128.968649-179.116972 5.396757-17.795459 9.658811-36.089081 12.730811-54.770163 101.56973 42.122378 171.589189 131.016649 171.589189 233.85946 0 71.818378-34.124108 136.828541-89.28173 183.849513-21.061189 17.989189 0.415135 124.236108-26.070486 136.330379-26.291892 12.011243-100.490378-70.102486-130.684541-65.093189-18.902486 3.127351-38.413838 4.760216-58.395675 4.760216-113.304216 0-212.134054-52.805189-264.57946-131.182703zM401.297297 220.575135a27.675676 27.675676 0 0 1 27.675676 27.675676v166.054054a27.675676 27.675676 0 1 1-55.351351 0v-166.054054a27.675676 27.675676 0 0 1 27.675675-27.675676z m0 304.432433a27.675676 27.675676 0 1 1 0-55.351352 27.675676 27.675676 0 0 1 0 55.351352z" /></svg>