<?xml version="1.0" standalone="no"?><!DOCTYPE svg PUBLIC "-//W3C//DTD SVG 1.1//EN" "http://www.w3.org/Graphics/SVG/1.1/DTD/svg11.dtd"><svg class="icon" width="200px" height="200.00px" viewBox="0 0 1024 1024" version="1.1" xmlns="http://www.w3.org/2000/svg"><path d="M1001.173333 325.12C978.133333 128 761.6 9.386667 580.693333 89.173333c-107.946667 47.573333-192 163.84-274.133333 245.76a32 32 0 0 0 45.44 45.226667c57.386667-57.6 113.066667-117.76 172.586667-173.013333s141.013333-94.72 228.906666-75.093334a234.666667 234.666667 0 0 1 176.426667 288.853334c-21.333333 76.586667-109.866667 173.013333-159.573333 237.226666C715.733333 728.106667 611.413333 888.96 512 896c-67.2-13.44-124.586667-81.92-168.96-129.28a2296.96 2296.96 0 0 1-156.8-188.373333c-42.666667-57.173333-92.373333-110.08-100.266667-184.533334C66.56 206.506667 263.893333 84.266667 426.666667 165.333333c36.906667 18.346667 69.333333-36.906667 32.426666-55.253333C179.2-29.653333-108.16 295.893333 83.84 551.466667c53.333333 71.04 109.866667 141.866667 168.106667 208.853333 61.226667 70.613333 146.346667 180.053333 245.546666 197.546667a31.573333 31.573333 0 0 0 14.506667 2.133333c130.986667-7.04 240.64-174.08 312.106667-266.453333 82.133333-106.88 193.92-224.213333 177.066666-368.426667zM541.226667 684.373333c-25.386667 32 19.626667 77.44 45.226666 45.226667 98.133333-123.946667 346.453333-307.2 183.253334-471.893333A32 32 0 0 0 725.333333 302.933333c89.6 90.453333-5.12 172.16-64 241.066667-41.173333 46.506667-82.133333 92.16-120.106666 140.373333z" /></svg>