<?xml version="1.0" standalone="no"?><!DOCTYPE svg PUBLIC "-//W3C//DTD SVG 1.1//EN" "http://www.w3.org/Graphics/SVG/1.1/DTD/svg11.dtd"><svg class="icon" width="200px" height="200.00px" viewBox="0 0 1024 1024" version="1.1" xmlns="http://www.w3.org/2000/svg"><path d="M1.874135 683.43250302a170.049482 170.049482 0 0 0 170.049481 170.049482h42.495436v-42.518016H171.923616c-70.449394 0-127.531466-57.082073-127.531466-127.531466s57.082073-127.531466 127.531466-127.531467h42.495436v-42.495435H171.923616a170.026902 170.026902 0 0 0-170.049481 170.026902zM682.026902 428.36957002h-340.053804a85.036031 85.036031 0 0 0 0 170.049482h340.076384a85.036031 85.036031 0 1 0-0.02258-170.049482z m0 297.580948h-340.053804a85.013451 85.013451 0 0 0 0 170.049482h340.076384a85.058611 85.058611 0 0 0-0.02258-170.049482z m0-595.139316h-340.053804a85.013451 85.013451 0 0 0 0 170.049482h340.076384a85.036031 85.036031 0 1 0-0.02258-170.049482z m170.004322 42.495435h-42.518016v42.518016h42.518016a127.463727 127.463727 0 0 1 127.531466 127.531466 127.441147 127.441147 0 0 1-127.531466 127.508887h-42.518016v42.518015h42.518016a170.026902 170.026902 0 1 0 0-340.076384z" /></svg>