<?xml version="1.0" standalone="no"?><!DOCTYPE svg PUBLIC "-//W3C//DTD SVG 1.1//EN" "http://www.w3.org/Graphics/SVG/1.1/DTD/svg11.dtd"><svg class="icon" width="200px" height="200.00px" viewBox="0 0 1024 1024" version="1.1" xmlns="http://www.w3.org/2000/svg"><path d="M800 576a161 161 0 0 0-23.07 1.67l-77.11-106.13a240 240 0 1 0-344.26-0.64l-77.29 106.38A195.8 195.8 0 0 0 256 576a192 192 0 1 0 135.77 56.25 193.13 193.13 0 0 0-34.58-27.49l62.73-86.34a241.12 241.12 0 0 0 215.36 0.4L701.52 610A159.82 159.82 0 0 0 640 736c0 88.22 71.77 160 160 160s160-71.78 160-160-71.77-160-160-160zM256 880a112 112 0 1 1 112-112 112.12 112.12 0 0 1-112 112z m272-416c-88.22 0-160-71.78-160-160s71.77-160 160-160 160 71.78 160 160-71.78 160-160 160z m272 352a80 80 0 1 1 80-80 80.09 80.09 0 0 1-80 80z" /></svg>