<?xml version="1.0" standalone="no"?><!DOCTYPE svg PUBLIC "-//W3C//DTD SVG 1.1//EN" "http://www.w3.org/Graphics/SVG/1.1/DTD/svg11.dtd"><svg class="icon" width="200px" height="200.00px" viewBox="0 0 1024 1024" version="1.1" xmlns="http://www.w3.org/2000/svg"><path d="M919.81 75.11L519.33 0.95c-4.38-0.81-8.87-0.81-13.26 0L103.32 75.11C86 78.3 73.42 93.4 73.42 111.02v474.63c0 74.84 23.56 144.8 70.04 207.92 36.12 49.07 86.04 93.87 148.38 133.16 104.2 65.68 207.12 93.52 211.45 94.67 6.24 1.66 12.8 1.64 19.03-0.07 4.3-1.18 106.63-29.59 210.21-95.55 61.97-39.46 111.59-84.28 147.49-133.23 46.21-63 69.64-132.61 69.64-206.91V111.02c0.01-17.61-12.54-32.7-29.85-35.91z m-43.16 510.54c0 106.93-61.2 200.33-181.91 277.63-50.66 32.45-110.41 60.37-179.24 83.77a9.14 9.14 0 0 1-5.89 0c-242.12-82.63-363.18-203.1-363.18-361.39V149.02c0-4.41 3.15-8.18 7.48-8.98L511 74.28c1.1-0.2 2.22-0.2 3.31 0L869.18 140c4.33 0.8 7.46 4.57 7.46 8.98v436.67z m-117.2-29.75a73.59 73.59 0 0 0-22.34 3.47L585.18 303.69c3.63-9.54 5.77-19.87 5.77-30.64 0-45.23-35.05-82.05-78.11-82.05s-78.11 36.82-78.11 82.05c0 13.02 2.99 25.25 8.12 36.25L294.12 559.27c-6.95-2.13-14.32-3.36-22.01-3.36-43.06 0-78.11 36.81-78.11 82.04 0 45.24 35.05 82.05 78.11 82.05 28.1 0 52.68-15.71 66.46-39.17h354.31c13.78 23.46 38.36 39.17 66.46 39.17 43.06 0 78.11-36.81 78.11-82.05 0.1-45.34-34.94-82.05-78-82.05zM272.11 673.31c-18.59 0-33.76-15.94-33.76-35.36s15.17-35.36 33.76-35.36c18.59 0 33.66 15.94 33.66 35.36-0.01 19.42-15.07 35.36-33.66 35.36z m240.73-435.73c18.59 0 33.76 15.94 33.76 35.36s-15.17 35.36-33.76 35.36c-18.59 0-33.66-15.94-33.66-35.36s15.07-35.36 33.66-35.36z m168.72 396.56H350c-0.85-18.86-7.69-36.14-18.59-49.5l142.85-240.42c11.33 6.85 24.47 10.78 38.47 10.78 15.71 0 30.35-4.94 42.64-13.36l144.57 243.23c-10.9 13.35-17.64 30.52-18.38 49.27z m77.89 39.17c-18.59 0-33.77-15.94-33.77-35.36s15.17-35.36 33.77-35.36c18.59 0 33.66 15.94 33.66 35.36s-15.07 35.36-33.66 35.36z" /></svg>